<?xml version="1.0" encoding="utf-8"?>
<!-- Generator: Adobe Illustrator 22.0.0, SVG Export Plug-In . SVG Version: 6.00 Build 0)  -->
<svg version="1.1"
	 id="Capa_1" inkscape:version="1.0.1 (3bc2e813f5, 2020-09-07)" sodipodi:docname="Burger King.svg" xmlns:cc="http://creativecommons.org/ns#" xmlns:dc="http://purl.org/dc/elements/1.1/" xmlns:inkscape="http://www.inkscape.org/namespaces/inkscape" xmlns:rdf="http://www.w3.org/1999/02/22-rdf-syntax-ns#" xmlns:sodipodi="http://sodipodi.sourceforge.net/DTD/sodipodi-0.dtd" xmlns:svg="http://www.w3.org/2000/svg"
	 xmlns="http://www.w3.org/2000/svg" xmlns:xlink="http://www.w3.org/1999/xlink" x="0px" y="0px" viewBox="0 0 916 1001"
	 style="enable-background:new 0 0 916 1001;" xml:space="preserve">
<style type="text/css">
	.st0{fill:#999999;}
	.st1{fill:#6B6B6B;}
</style>
<sodipodi:namedview  bordercolor="#666666" borderopacity="1" fit-margin-bottom="0" fit-margin-left="0" fit-margin-right="0" fit-margin-top="0" gridtolerance="10" guidetolerance="10" id="namedview398" inkscape:current-layer="svg396" inkscape:cx="457.68501" inkscape:cy="500.00002" inkscape:pageopacity="0" inkscape:pageshadow="2" inkscape:window-height="1017" inkscape:window-maximized="1" inkscape:window-width="1920" inkscape:window-x="-8" inkscape:window-y="-8" inkscape:zoom="0.82699997" objecttolerance="10" pagecolor="#ffffff" showgrid="false">
	</sodipodi:namedview>
<desc  id="desc2">Created by EvoPdf</desc>
<path class="st0" d="M801.1,893.7C733.7,931.7,618,942.6,458,942.6s-275.7-10.9-343.1-48.9c-40.5-22.8-61-53.9-61-76.1
	c0-12.7,6.7-19.9,21.8-19.9h764.5c15,0,21.8,7.3,21.8,19.9C862.1,839.8,841.6,870.9,801.1,893.7z M840.3,303.2H75.7
	c-15,0-21.8-7.8-21.8-21.7c0-82.9,124.7-229.2,404.1-229.2c276.7,0,404.1,146.3,404.1,229.2C862.1,295.5,855.3,303.2,840.3,303.2z"
	/>
<path class="st1" d="M216.8,645.1c-2.3-3.6-2.6-6-2.6-7c0-2.8,1.6-4.9,4.7-7.8c7.3-6.7,25.2-23.6,35-38.8
	c7.5-11.7,10.6-22.3,10.6-31.1c0-22.5-20.5-40.1-42.8-40.1c-14.3,0-27.7,8-36.8,22.8c-12.2,19.7-26.7,42.5-36,51.5
	c-2.3,2.3-3.6,2.8-5.4,2.8c-3.1,0-4.4-2.1-4.4-5.4v-25.9c0-25.4-15-45.8-42.3-45.8c-27.5,0-42.3,20.5-42.3,45.8v159.5
	c0,25.4,14.8,45.8,42.3,45.8c27.2,0,42.3-20.5,42.3-45.8v-36.8c0-3.1,1.3-5.4,4.4-5.4c4.1,0,5.2,4.1,6.2,6.2
	c6,14.2,23.3,44.5,39.4,62.4c10.9,11.9,24.4,19.4,38.6,19.4c24.1,0,44.4-21,44.4-43.5c0-14-6-24.3-17.4-36.8
	C240.2,675.4,223,654.6,216.8,645.1z"/>
<path class="st1" d="M540.2,505.5c40.7,0,66.4-25.9,66.4-63.7c0-24.1-14.5-40.7-43.6-40.7h-8.3c-15.3,0-27.2,7.3-27.2,23.6
	c0,14.5,12.7,21.5,22.3,21.5c4.9,0,8,1.6,8,5.2c0,4.7-5.4,7.8-11.7,7.8c-19.5,0-32.7-13.7-32.7-39.4c0-28.5,18.2-38.8,32.2-38.8
	c17.1,0,20,8.8,31.9,8.8c13.7,0,23.1-11.4,23.1-23.3c0-8.8-3.9-15.5-9.9-20.2c-10.9-8-26.2-14-49-14c-40.2,0-79.4,26.4-79.4,87.5
	C462.4,478.3,501.6,505.5,540.2,505.5z"/>
<path class="st1" d="M84.3,503.9h36.6c34.5,0,55.5-23.1,55.5-51.8c0-23.1-13.7-33.7-16.9-36.3c-1.3-1-2.6-2.1-2.6-3.1
	c0-1.3,0.8-1.8,2.1-3.4c4.9-5.7,9.9-14.8,9.9-28c0-31.1-21-47.6-53.7-47.6H84.3c-20.5,0-30.3,11.9-30.3,28V476
	C53.9,492,63.8,503.9,84.3,503.9z M99.6,378.3c0-3.4,2.1-6,6.5-6h3.4c11.1,0,14.5,7.8,14.5,14.5c0,6.2-3.4,15-14.5,15h-3.4
	c-4.4,0-6.5-2.6-6.5-6V378.3z M99.6,438.9c0-3.4,2.1-6,6.5-6h4.7c12.5,0,16.1,8.3,16.1,15.8c0,6.7-3.6,16.3-16.1,16.3h-4.7
	c-4.4,0-6.5-2.6-6.5-6V438.9z"/>
<path class="st1" d="M761.4,505.2c16.6,0,25.7-12.4,25.7-28v-27.4c0-3.4,1.6-4.9,4.1-4.9c3.1,0,4.1,1.8,4.7,4.9
	c2.3,13.2,8.6,31.1,15.6,40.1c8.8,11.7,17.1,15.3,25.4,15.3c13.5,0,25.2-10.6,25.2-23.8c0-8.8-3.6-15.3-8.3-21.2
	c-8.8-11.1-14.3-18.4-17.6-27.4c-0.8-2.1-0.3-3.9,2.1-5.7c8-6.2,17.4-19.9,17.4-41.7c0-32.9-27.2-51.5-60.2-51.5h-29.3
	c-20.5,0-30.3,11.9-30.3,28v115.5C735.8,492.8,744.8,505.2,761.4,505.2z M784.3,382.8c0-3.4,2.1-6,6.5-6h3.6
	c10.9,0,14.3,7.8,14.3,14.5c0,6.5-3.4,15-14.3,15h-3.6c-4.4,0-6.5-2.6-6.5-6V382.8z"/>
<path class="st1" d="M335.1,520.3c-29,0-44.9,21.7-44.9,48.9v153.3c0,27.2,15.8,48.9,44.9,48.9c29,0,44.9-21.7,44.9-48.9V569.2
	C379.9,542,364.1,520.3,335.1,520.3z"/>
<path class="st1" d="M796.2,620h-12.7c-22.8,0-40.5,10.6-40.5,33.9c0,21.2,19.2,31.3,33.5,31.3c7,0,11.9,2.1,11.9,7.5
	c0,6.7-8.3,11.1-17.1,11.1c-29.3,0-49.3-19.9-49.3-57c0-41.2,27.2-56.2,48.2-56.2c25.7,0,29.8,13,47.7,13
	c20.7,0,34.7-16.8,34.7-33.9c0-12.7-5.7-22.5-14.8-29.3c-15.8-11.7-39.7-20.2-73.4-20.2c-60.4,0-119.3,38.1-119.3,126.6
	c0,84.7,58.9,124.3,117,124.3c60.9,0,99.6-37.5,99.6-92.4C861.8,644,840,620,796.2,620z"/>
<path class="st1" d="M698.2,503.9c14.5,0,25.9-8.5,25.9-24.1c0-15.3-11.4-23.8-25.9-23.8h-23.3c-4.4,0-6.5-2.6-6.5-6v-4.9
	c0-3.4,2.1-6,6.5-6h17.9c12.5,0,22.3-7.5,22.3-20.7c0-13.2-9.9-20.7-22.3-20.7h-17.9c-4.4,0-6.5-2.6-6.5-6v-4.1c0-3.4,2.1-6,6.5-6
	h23.3c14.5,0,25.9-8.5,25.9-24.1c0-15.3-11.4-23.8-25.9-23.8h-49c-20.5,0-30.3,11.9-30.3,28v114.2c0,16,9.9,28,30.3,28L698.2,503.9
	L698.2,503.9z"/>
<path class="st1" d="M252.6,505.2c42,0,64.3-25.1,64.3-56.7v-87.3c0-15.5-9.1-28-25.7-28c-16.6,0-25.7,12.4-25.7,28v84.4
	c0,6.2-3.6,13.5-13,13.5s-12.5-7.3-12.5-13.5v-84.4c0-15.5-9.3-28-25.9-28c-16.6,0-25.7,12.4-25.7,28v87.3
	C188.5,480.1,210.6,505.2,252.6,505.2z"/>
<path class="st1" d="M434.7,505.2c13.5,0,25.2-10.6,25.2-23.8c0-8.8-3.6-15.3-8.3-21.2c-7.5-9.8-14.3-18.4-17.6-27.4
	c-0.8-2.1-0.3-3.9,2.1-5.7c8-6.2,17.4-19.9,17.4-41.7c0-32.9-27.2-51.5-60.2-51.5h-29.3c-20.5,0-30.3,11.9-30.3,28v115.5
	c0,15.5,9.1,28,25.7,28c16.6,0,25.7-12.4,25.7-28v-27.4c0-3.4,1.6-4.9,4.1-4.9c3.1,0,4.1,1.8,4.7,4.9c2.3,13.2,8.6,31.1,15.6,40.1
	C418.1,501.6,426.4,505.2,434.7,505.2z M392.1,406.3h-3.6c-4.4,0-6.5-2.6-6.5-6v-17.6c0-3.4,2.1-6,6.5-6h3.6
	c10.9,0,14.3,7.8,14.3,14.5C406.4,397.8,403,406.3,392.1,406.3z"/>
<path class="st1" d="M583.8,520.3c-26.7,0-41.2,19.9-41.2,45.1v55.9c0,4.7-1.6,6.7-4.4,6.7c-2.1,0-3.6-1.3-5.4-4.9l-36-69.9
	c-13.7-26.7-28-32.9-44.4-32.9c-27.2,0-42.3,20.5-42.3,46.1v160c0,25.1,14.5,45.1,41.2,45.1c26.7,0,41.2-19.9,41.2-45.1v-55.9
	c0-4.7,1.6-6.7,4.4-6.7c2.1,0,3.6,1.3,5.4,4.9l36,69.9c13.7,26.7,28.5,32.9,44.4,32.9c27.2,0,42.3-20.5,42.3-46.1v-160
	C625,540.2,610.5,520.3,583.8,520.3z"/>
<path class="st1" d="M825.3,920.6c0-7,5.4-12.8,12.8-12.8c7.4,0,12.8,5.8,12.8,12.8c0,7.5-5.4,12.9-12.8,12.9
	C830.7,933.4,825.3,928,825.3,920.6z M848.1,920.6c0-6.4-5.1-10.2-10-10.2c-5,0-10,3.7-10,10.2c0,6.7,5.1,10.3,10,10.3
	C843,930.8,848.1,927.3,848.1,920.6z M833.6,926.1v-10.9c0-0.7,0.6-1.4,1.3-1.4h3.7c2.9,0,4.9,1.7,4.9,4.1c0,2-1.1,3.7-3.7,4.2
	l2.9,3.2c0.3,0.3,0.4,0.6,0.4,0.9c0,0.8-0.5,1.3-1.3,1.3c-0.5,0-0.9-0.3-1.1-0.6l-3.8-4.5h-0.4v3.7c0,0.7-0.6,1.3-1.4,1.3
	C834.3,927.3,833.6,926.7,833.6,926.1z M838.3,919.9c1.6,0,2.4-0.8,2.4-1.8c0-1.1-0.8-1.7-2.2-1.7h-2.2v3.6L838.3,919.9L838.3,919.9
	z"/>
</svg>
